<?xml version="1.0" encoding="UTF-8" standalone="no"?>
<svg width="155px" height="80px" viewBox="0 0 155 80" version="1.1" xmlns="http://www.w3.org/2000/svg" xmlns:xlink="http://www.w3.org/1999/xlink">
  <defs></defs>
  <g id="Page-1" stroke="none" stroke-width="1" fill="none" fill-rule="evenodd">
    <path d="M37.392,37.008 C37.392,35.728 36.688,35.088 35.408,35.088 C35.088,35.088 34.448,35.536 33.488,36.304 C28.688,40.528 26.128,42.768 25.808,43.088 C24.464,41.232 23.12,39.312 21.84,37.392 C19.6,34.448 18.192,32.912 17.616,32.912 C16.08,32.912 15.376,33.68 15.376,35.216 C15.376,35.536 15.952,36.56 17.104,38.288 C18.256,40.144 18.96,41.232 19.344,41.488 C19.664,41.872 20.048,42.064 20.496,42.192 C21.2,43.088 21.904,44.176 22.608,45.52 C15.44,51.088 11.92,54.864 11.92,56.848 C11.92,58.192 12.496,58.896 13.776,58.896 C14.288,58.896 14.736,58.576 15.248,58.064 C15.632,57.552 16.08,57.104 16.592,56.592 C18.768,54.16 21.456,51.6 24.72,48.912 C25.872,50.896 26.64,52.176 26.896,52.688 C28.368,55.952 29.2,57.68 29.328,57.936 C29.776,58.768 30.352,59.216 31.12,59.216 C32.208,59.216 32.848,58.576 33.04,57.424 C32.784,56.208 32.016,54.352 30.8,51.856 C29.84,50.064 28.88,48.208 27.984,46.352 C33.04,42.128 35.984,39.568 36.816,38.544 C37.2,38.032 37.392,37.52 37.392,37.008 L37.392,37.008 Z M64.528,42.96 C64.528,42.512 64.272,41.936 63.76,41.296 C63.76,39.696 63.504,38.224 62.992,36.944 C63.12,36.496 63.184,36.176 63.184,36.048 C63.184,35.344 62.8,34.704 62.16,34.128 C61.456,33.616 60.752,33.296 60.112,33.296 C57.168,33.296 53.648,35.216 49.424,39.056 C48.08,40.336 47.12,41.36 46.608,42 C43.92,45.328 42.64,48.4 42.64,51.344 C42.64,53.2 43.216,54.864 44.432,56.272 C45.648,57.936 47.12,58.704 48.848,58.704 C52.112,58.704 55.504,56.592 59.024,52.368 C59.28,54.736 59.472,56.464 59.6,57.552 C59.792,59.6 60.496,60.688 61.776,60.688 C63.12,60.688 63.824,60.048 63.824,58.832 C63.824,58.704 63.568,57.744 63.184,55.824 C62.928,54.8 62.864,53.712 62.864,52.624 C62.864,49.68 63.312,46.8 64.272,44.112 C64.4,43.6 64.528,43.216 64.528,42.96 L64.528,42.96 Z M60.048,41.168 C60.048,43.984 58.768,46.864 56.336,49.936 C53.904,53.008 51.536,54.48 49.104,54.48 C47.312,54.48 46.48,53.392 46.48,51.152 C46.48,49.04 47.76,46.48 50.448,43.472 C51.472,42.256 52.816,41.04 54.48,39.824 C56.272,38.48 57.616,37.776 58.448,37.776 C59.472,37.776 60.048,38.928 60.048,41.168 L60.048,41.168 Z M93.52,35.408 C93.456,34.704 93.2,34 92.688,33.36 C92.048,32.72 91.408,32.4 90.768,32.4 C88.208,32.4 85.712,33.36 83.28,35.28 C80.72,37.264 78.736,39.696 77.2,42.576 C76.944,41.296 76.56,39.504 76.048,37.072 C75.536,34.768 74.576,33.552 73.168,33.552 C72.848,33.552 72.592,33.808 72.336,34.32 C72.016,34.832 71.888,35.28 71.888,35.664 C71.888,36.688 72.016,38.096 72.336,39.824 C72.464,40.72 72.848,41.616 73.616,42.384 C74,44.24 74.256,46.096 74.256,47.952 C74.256,49.616 74.064,51.408 73.744,53.328 C73.424,54.928 73.168,56.016 73.04,56.656 C73.04,57.552 73.296,58.256 73.808,59.024 C74.32,59.792 74.896,60.24 75.6,60.24 C76.432,60.24 77.136,58.064 77.712,53.776 C78.736,45.584 82.064,40.272 87.568,37.712 C88.336,37.968 88.72,38.096 88.848,38.096 C89.488,38.096 90.32,37.84 91.472,37.328 C92.816,36.752 93.52,36.112 93.52,35.408 L93.52,35.408 Z M113.04,34.256 C112.848,33.68 112.72,33.232 112.656,32.912 C112.336,31.76 111.888,31.12 111.312,30.928 C110.16,30.608 109.2,30.416 108.496,30.416 C106.704,30.416 105.552,30.928 105.168,31.952 C102.224,33.04 100.816,34.96 100.816,37.776 C100.816,38.928 101.008,40.08 101.456,41.296 C101.968,42.576 102.416,43.792 102.864,44.944 C104.72,50.192 105.68,53.328 105.68,54.224 C105.68,56.272 104.144,57.232 101.072,57.232 C100.496,57.232 99.664,57.168 98.576,56.976 C97.424,56.848 96.784,56.784 96.528,56.784 C95.44,56.784 94.928,57.616 94.928,59.216 C94.928,60.624 96.912,61.392 100.88,61.392 C103.312,61.392 105.296,60.944 106.832,60.112 C108.624,59.024 109.52,57.488 109.52,55.376 C109.52,53.712 108.816,50.96 107.472,47.056 C106.896,45.52 106.32,43.984 105.68,42.448 C104.912,40.528 104.592,39.248 104.592,38.672 C104.592,36.816 105.616,35.856 107.792,35.856 C108.176,35.856 108.752,35.92 109.52,35.984 C110.288,36.112 110.864,36.112 111.248,36.112 C112.336,36.112 112.912,35.536 113.04,34.256 L113.04,34.256 Z M140.816,59.216 C140.56,57.488 140.432,56.144 140.304,55.12 C139.92,51.152 139.792,48.208 139.792,46.224 C139.792,45.52 139.792,44.432 139.92,43.024 C140.048,41.68 140.112,40.784 140.112,40.336 C140.112,39.44 139.856,38.672 139.344,37.904 C138.768,37.2 138.128,36.816 137.36,36.816 C136.08,36.816 133.52,38.352 129.744,41.424 C126.416,44.176 123.728,46.8 121.68,49.296 C122.448,41.68 124.048,31.504 126.608,18.704 C127.184,15.568 127.504,13.904 127.504,13.712 C127.504,12.944 127.248,12.176 126.736,11.408 C126.224,10.704 125.584,10.32 124.944,10.32 C124.496,10.32 124.176,10.64 123.984,11.152 C123.856,11.472 123.664,12.304 123.408,13.712 L122.192,20.88 C120.528,30.16 119.696,35.024 119.696,35.408 C118.736,41.488 118.288,46.736 118.288,51.088 C118.288,51.344 118.288,51.92 118.352,52.688 L118.352,54.288 C118.352,54.416 118.288,54.8 118.288,55.44 C118.16,56.08 118.16,56.464 118.16,56.592 C118.16,57.296 118.416,57.936 118.992,58.576 C119.568,59.216 120.208,59.536 120.976,59.536 C121.296,59.536 121.808,58.704 122.512,57.168 C122.896,56.208 123.344,55.248 123.856,54.224 C125.904,50.32 129.936,46.352 136.016,42.256 L136.464,53.584 C136.592,58.064 137.744,60.368 139.856,60.368 C140.496,60.368 140.816,59.984 140.816,59.216 L140.816,59.216 Z" id="xarsh" fill="#000000"></path>
  </g>
</svg>
